<svg t="1657691344373" class="icon" viewBox="0 0 1024 1024" version="1.1" xmlns="http://www.w3.org/2000/svg" p-id="3631" width="200" height="200"><path d="M692.880115 693.118034c-44.289716 0-80.322373-36.013215-80.322373-80.280418 0-44.269249 36.032658-80.282464 80.322373-80.282464 44.287669 0 80.31828 36.013215 80.31828 80.282464C773.198395 657.104819 737.167784 693.118034 692.880115 693.118034zM692.880115 554.22059c-32.343639 0-58.656935 26.294876-58.656935 58.617026 0 32.321126 26.313296 58.614979 58.656935 58.614979 32.341592 0 58.653865-26.293853 58.653865-58.614979C751.53398 580.515467 725.221708 554.22059 692.880115 554.22059z" p-id="3632"></path><path d="M303.470151 361.833909c-12.710486-8.299013-21.272489-3.643993-21.274536-3.645017l-9.327436-6.076392 136.662543-198.768019 97.994871 93.931323-14.991436 15.640212-79.637782-76.335572L303.347354 346.116949c3.305279 2.156106 7.363711 4.804423 11.966543 7.80885L303.470151 361.833909z" p-id="3633"></path><path d="M368.969934 362.483708 356.142791 345.025081 632.338251 142.094252 768.097214 346.929454 750.039953 358.898043 626.84105 173.015495Z" p-id="3634"></path><path d="M864.272647 881.906771 159.725306 881.906771c-7.733125 0-14.025435-6.291287-14.025435-14.022365L145.699871 357.793896c0-7.733125 6.29231-14.024411 14.025435-13.001105l704.547341 0c7.734148-1.023306 14.025435 5.26798 14.025435 13.001105l0 510.090511C878.298082 875.614461 872.005772 881.906771 864.272647 881.906771zM167.36531 860.242356l689.268356 0L856.633666 366.457206 167.36531 366.457206 167.36531 860.242356z" p-id="3635"></path></svg>
